<svg xmlns="http://www.w3.org/2000/svg" viewBox="0 0 283.18 182.05">
  <defs>
    <style>.cls-1{fill:none;stroke:#000;stroke-linecap:round;stroke-linejoin:round;stroke-width:2.33px;}</style>
  </defs>
  <title>Asset 11</title>
  <g id="Layer_3" data-name="Layer 3">
    <g id="S">
      <path class="cls-1" d="M1.17,24.32h0a22.87,22.87,0,0,1,45.73,0h0a5.81,5.81,0,0,1-5.81,5.81h0a5.82,5.82,0,0,1-5.82-5.73v-.16a11.24,11.24,0,0,0-22.47.08h0A5.82,5.82,0,0,1,7,30.13H7a5.81,5.81,0,0,1-5.81-5.81h0" />
      <path class="cls-1" d="M46.9,58.3h0a22.87,22.87,0,0,1-45.73,0h0A5.81,5.81,0,0,1,7,52.49H7a5.8,5.8,0,0,1,5.81,5.73v.16a11.24,11.24,0,0,0,22.48-.08h0a5.82,5.82,0,0,1,5.82-5.81h0A5.81,5.81,0,0,1,46.9,58.3h0" />
      <path class="cls-1" d="M1.17,24.32h0A5.82,5.82,0,0,1,7,18.5H7a5.83,5.83,0,0,1,5.82,5.82h0A11.22,11.22,0,0,0,24,35.51,22.85,22.85,0,0,1,46.9,58.3h0a5.82,5.82,0,0,1-5.81,5.82h0a5.82,5.82,0,0,1-5.82-5.74v-.16A11.22,11.22,0,0,0,24,47.11,22.85,22.85,0,0,1,1.17,24.32Z" />
    </g>
    <g id="P">
      <path class="cls-1" d="M83.62,46.75A22.79,22.79,0,1,1,106.48,24,22.85,22.85,0,0,1,83.62,46.75Zm0-34A11.2,11.2,0,1,0,94.86,24,11.23,11.23,0,0,0,83.62,12.76Z" />
      <path class="cls-1" d="M66.58,81.07h0a5.84,5.84,0,0,1-5.83-5.84V7a5.83,5.83,0,0,1,5.83-5.83h0A5.83,5.83,0,0,1,72.42,7V75.23A5.84,5.84,0,0,1,66.58,81.07Z" />
    </g>
    <g id="A">
      <path class="cls-1" d="M112.44,80.74h0A5.81,5.81,0,0,1,109,73.29L129.84,5a5.81,5.81,0,0,1,7.45-3.47h0A5.81,5.81,0,0,1,140.76,9l-20.87,68.3A5.81,5.81,0,0,1,112.44,80.74Z" />
      <path class="cls-1" d="M133.32,1.52h0A5.81,5.81,0,0,0,129.85,9l20.87,68.3a5.82,5.82,0,0,0,7.46,3.47h0a5.81,5.81,0,0,0,3.47-7.45L140.77,5A5.81,5.81,0,0,0,133.32,1.52Z" />
      <path class="cls-1" d="M154.88,52.81h0a5.83,5.83,0,0,1-5.83,5.84H121.56a5.83,5.83,0,0,1-5.83-5.84h0A5.83,5.83,0,0,1,121.56,47h27.49A5.83,5.83,0,0,1,154.88,52.81Z" />
    </g>
    <g id="C">
      <path class="cls-1" d="M184,58a11.24,11.24,0,0,0,22.48.08v-.17a5.81,5.81,0,0,1,5.82-5.73h0a5.81,5.81,0,0,1,5.81,5.81h0a22.87,22.87,0,0,1-45.74,0V24a22.87,22.87,0,0,1,45.74,0h0a5.81,5.81,0,0,1-5.81,5.81h0A5.81,5.81,0,0,1,206.45,24v-.16A11.24,11.24,0,0,0,184,24Z" />
    </g>
    <g id="E1">
      <path class="cls-1" d="M275.43,7h0a5.84,5.84,0,0,1-5.83,5.84H242.11A5.85,5.85,0,0,1,236.27,7h0a5.84,5.84,0,0,1,5.84-5.83H269.6A5.83,5.83,0,0,1,275.43,7Z" />
      <path class="cls-1" d="M242.11,81.07h0a5.85,5.85,0,0,1-5.84-5.84V7a5.84,5.84,0,0,1,5.84-5.83h0A5.83,5.83,0,0,1,247.94,7V75.23A5.84,5.84,0,0,1,242.11,81.07Z" />
      <path class="cls-1" d="M275.43,75.23h0a5.84,5.84,0,0,1-5.83,5.84H242.11a5.85,5.85,0,0,1-5.84-5.84h0a5.84,5.84,0,0,1,5.84-5.83H269.6A5.83,5.83,0,0,1,275.43,75.23Z" />
      <path class="cls-1" d="M236.27,41.12h0a5.89,5.89,0,0,1,5.89-5.88h22.61a5.88,5.88,0,0,1,5.88,5.88h0A5.88,5.88,0,0,1,264.77,47H242.16A5.89,5.89,0,0,1,236.27,41.12Z" />
    </g>
    <g id="F">
      <path class="cls-1" d="M7,180.88H7a5.83,5.83,0,0,1-5.83-5.83V106.82A5.83,5.83,0,0,1,7,101H7a5.84,5.84,0,0,1,5.84,5.83v68.23A5.84,5.84,0,0,1,7,180.88Z" />
      <path class="cls-1" d="M40.32,106.82h0a5.83,5.83,0,0,1-5.83,5.83H7a5.83,5.83,0,0,1-5.83-5.83h0A5.83,5.83,0,0,1,7,101H34.49A5.83,5.83,0,0,1,40.32,106.82Z" />
      <path class="cls-1" d="M1.17,140.94h0a5.89,5.89,0,0,1,5.88-5.89H29.67a5.89,5.89,0,0,1,5.88,5.89h0a5.89,5.89,0,0,1-5.88,5.88H7.05A5.88,5.88,0,0,1,1.17,140.94Z" />
    </g>
    <g id="I">
      <path class="cls-1" d="M57.18,180.88h0a5.83,5.83,0,0,1-5.84-5.83V106.82A5.83,5.83,0,0,1,57.18,101h0A5.83,5.83,0,0,1,63,106.82v68.23A5.83,5.83,0,0,1,57.18,180.88Z" />
    </g>
    <g id="L1">
      <path class="cls-1" d="M86.43,180.88h0a5.83,5.83,0,0,1-5.84-5.83V106.82A5.83,5.83,0,0,1,86.43,101h0a5.83,5.83,0,0,1,5.83,5.83v68.23A5.83,5.83,0,0,1,86.43,180.88Z" />
      <path class="cls-1" d="M119.75,175.05h0a5.83,5.83,0,0,1-5.84,5.83H86.43a5.83,5.83,0,0,1-5.84-5.83h0a5.83,5.83,0,0,1,5.84-5.83h27.48A5.83,5.83,0,0,1,119.75,175.05Z" />
    </g>
    <g id="L2">
      <path class="cls-1" d="M138.05,180.88h0a5.83,5.83,0,0,1-5.83-5.83V106.82a5.83,5.83,0,0,1,5.83-5.83h0a5.84,5.84,0,0,1,5.84,5.83v68.23A5.84,5.84,0,0,1,138.05,180.88Z" />
      <path class="cls-1" d="M171.37,175.05h0a5.83,5.83,0,0,1-5.83,5.83H138.05a5.83,5.83,0,0,1-5.83-5.83h0a5.83,5.83,0,0,1,5.83-5.83h27.49A5.83,5.83,0,0,1,171.37,175.05Z" />
    </g>
    <g id="E2">
      <path class="cls-1" d="M187.68,180.88h0a5.83,5.83,0,0,1-5.84-5.83V106.82a5.83,5.83,0,0,1,5.84-5.83h0a5.83,5.83,0,0,1,5.83,5.83v68.23A5.83,5.83,0,0,1,187.68,180.88Z" />
      <path class="cls-1" d="M221,106.82h0a5.83,5.83,0,0,1-5.84,5.83H187.68a5.83,5.83,0,0,1-5.84-5.83h0a5.83,5.83,0,0,1,5.84-5.83h27.48A5.83,5.83,0,0,1,221,106.82Z" />
      <path class="cls-1" d="M221,175.05h0a5.83,5.83,0,0,1-5.84,5.83H187.68a5.83,5.83,0,0,1-5.84-5.83h0a5.83,5.83,0,0,1,5.84-5.83h27.48A5.83,5.83,0,0,1,221,175.05Z" />
      <path class="cls-1" d="M181.84,140.94h0a5.89,5.89,0,0,1,5.88-5.89h22.62a5.89,5.89,0,0,1,5.88,5.89h0a5.88,5.88,0,0,1-5.88,5.88H187.72A5.89,5.89,0,0,1,181.84,140.94Z" />
    </g>
    <g id="R">
      <path class="cls-1" d="M259.14,146.57A22.79,22.79,0,1,1,282,123.78,22.85,22.85,0,0,1,259.14,146.57Zm0-34a11.2,11.2,0,1,0,11.24,11.2A11.23,11.23,0,0,0,259.14,112.58Z" />
      <path class="cls-1" d="M242.11,180.88h0a5.83,5.83,0,0,1-5.83-5.83V106.82a5.83,5.83,0,0,1,5.83-5.83h0a5.83,5.83,0,0,1,5.83,5.83v68.23A5.83,5.83,0,0,1,242.11,180.88Z" />
      <path class="cls-1" d="M270.35,157.84a23.16,23.16,0,0,1,4.29,3,22.81,22.81,0,0,1,7.23,12.68,7.65,7.65,0,0,1,.14,1.51h0a5.83,5.83,0,0,1-5.83,5.83H276a5.82,5.82,0,0,1-5.55-4.91h0a10.89,10.89,0,0,0-1.27-3.64,11.26,11.26,0,0,0-9.77-5.67,24.21,24.21,0,0,1-15.76-5.8A22.79,22.79,0,0,1,236.4,148c0-.15-.05-.29-.07-.44a4.9,4.9,0,0,1-.06-.77h0a5.81,5.81,0,0,1,11.48-1.29l.08.47a12,12,0,0,0,11.6,9.14,22.69,22.69,0,0,1,10.91,2.77" />
    </g>
  </g>
</svg>