<svg xmlns="http://www.w3.org/2000/svg" viewBox="0 0 283.17 182.08">
  <defs>
    <style>.cls-1{fill:none;stroke:#000;stroke-linecap:round;stroke-linejoin:round;stroke-width:2.33px;}</style>
  </defs>
  <title>Asset 1</title>
  <g id="Layer_3" data-name="Layer 3">
    <g class="S">
      <path class="cls-1" d="M1.16,24.36h0a22.87,22.87,0,0,1,45.73,0h0a5.81,5.81,0,0,1-5.81,5.81h0a5.83,5.83,0,0,1-5.82-5.73v-.16a11.24,11.24,0,0,0-22.47.08h0A5.82,5.82,0,0,1,7,30.17H7a5.81,5.81,0,0,1-5.81-5.81h0" />
      <path class="cls-1" d="M46.9,58.34h0a22.87,22.87,0,0,1-45.73,0h0A5.81,5.81,0,0,1,7,52.52H7a5.78,5.78,0,0,1,5.8,5.73v.16a11.25,11.25,0,0,0,22.49-.08h0a5.8,5.8,0,0,1,5.82-5.81h0a5.8,5.8,0,0,1,5.79,5.81h0" />
      <path class="cls-1" d="M1.16,24.36h0A5.83,5.83,0,0,1,7,18.53H7a5.81,5.81,0,0,1,5.81,5.82h0A11.24,11.24,0,0,0,24,35.55,22.85,22.85,0,0,1,46.9,58.34h0a5.82,5.82,0,0,1-5.81,5.82h0a5.82,5.82,0,0,1-5.82-5.74v-.16A11.22,11.22,0,0,0,24,47.15,22.87,22.87,0,0,1,1.16,24.36Z" />
    </g>
    <g class="P">
      <path class="cls-1" d="M83.62,46.79A22.79,22.79,0,1,1,106.48,24,22.79,22.79,0,0,1,83.62,46.79Z" />
      <path class="cls-1" d="M66.58,81.11h0a5.83,5.83,0,0,1-5.83-5.85V7a5.83,5.83,0,0,1,5.83-5.83h0A5.82,5.82,0,0,1,72.41,7V75.27A5.84,5.84,0,0,1,66.58,81.11Z" />
    </g>
    <g class="A">
      <path class="cls-1" d="M112.44,80.78h0A5.81,5.81,0,0,1,109,73.33L129.83,5a5.82,5.82,0,0,1,7.45-3.48h0A5.8,5.8,0,0,1,140.76,9V9l-20.87,68.3A5.81,5.81,0,0,1,112.44,80.78Z" />
      <path class="cls-1" d="M133.32,1.56h0A5.81,5.81,0,0,0,129.83,9l0,0,20.87,68.3a5.82,5.82,0,0,0,7.46,3.47h0a5.83,5.83,0,0,0,3.47-7.45h0L140.77,5a5.82,5.82,0,0,0-7.45-3.49Z" />
      <path class="cls-1" d="M154.88,52.85h0a5.83,5.83,0,0,1-5.82,5.83H121.55a5.84,5.84,0,0,1-5.83-5.83h0A5.83,5.83,0,0,1,121.55,47h27.5A5.83,5.83,0,0,1,154.88,52.85Z" />
    </g>
    <g class="C">
      <path class="cls-1" d="M184,58a11.24,11.24,0,1,0,22.47.08V58a5.81,5.81,0,0,1,5.83-5.73h0A5.81,5.81,0,0,1,218.11,58h0a22.88,22.88,0,0,1-45.75,0h0V24a22.88,22.88,0,1,1,45.75,0h0a5.82,5.82,0,0,1-5.81,5.81h0a5.82,5.82,0,0,1-5.85-5.77v-.2A11.23,11.23,0,0,0,184,24Z" />
    </g>
    <g class="E">
      <path class="cls-1" d="M242.11,81.11h0a5.85,5.85,0,0,1-5.84-5.85V7a5.83,5.83,0,0,1,5.84-5.83h0A5.84,5.84,0,0,1,247.94,7h0V75.27A5.84,5.84,0,0,1,242.11,81.11Z" />
      <path class="cls-1" d="M275.42,7h0a5.84,5.84,0,0,1-5.82,5.84H242.11A5.85,5.85,0,0,1,236.27,7h0a5.83,5.83,0,0,1,5.84-5.83H269.6A5.83,5.83,0,0,1,275.42,7Z" />
      <path class="cls-1" d="M275.42,75.27h0a5.84,5.84,0,0,1-5.82,5.84H242.11a5.85,5.85,0,0,1-5.84-5.84h0a5.83,5.83,0,0,1,5.84-5.83H269.6A5.83,5.83,0,0,1,275.42,75.27Z" />
      <path class="cls-1" d="M236.27,41.16h0a5.88,5.88,0,0,1,5.89-5.88h22.61a5.87,5.87,0,0,1,5.88,5.87h0A5.89,5.89,0,0,1,264.77,47H242.16A5.89,5.89,0,0,1,236.27,41.16Z" />
    </g>
    <g class="F">
      <path class="cls-1" d="M7,180.92H7a5.84,5.84,0,0,1-5.83-5.83h0V106.86A5.81,5.81,0,0,1,7,101H7a5.83,5.83,0,0,1,5.84,5.83V175.1A5.86,5.86,0,0,1,7,180.92Z" />
      <path class="cls-1" d="M40.31,106.86h0a5.83,5.83,0,0,1-5.82,5.83H7a5.84,5.84,0,0,1-5.83-5.83h0A5.81,5.81,0,0,1,7,101H34.49A5.82,5.82,0,0,1,40.31,106.86Z" />
      <path class="cls-1" d="M1.16,141h0a5.89,5.89,0,0,1,5.89-5.89H29.67A5.88,5.88,0,0,1,35.54,141h0a5.89,5.89,0,0,1-5.88,5.88H7.05A5.89,5.89,0,0,1,1.16,141Z" />
    </g>
    <g class="I">
      <path class="cls-1" d="M57.18,180.92h0a5.84,5.84,0,0,1-5.84-5.82h0V106.86A5.82,5.82,0,0,1,57.17,101h0A5.83,5.83,0,0,1,63,106.86v68.23A5.84,5.84,0,0,1,57.18,180.92Z" />
    </g>
    <g class="L">
      <path class="cls-1" d="M86.43,180.92h0a5.84,5.84,0,0,1-5.84-5.82h0V106.86A5.84,5.84,0,0,1,86.42,101h0a5.84,5.84,0,0,1,5.83,5.83h0V175.1A5.84,5.84,0,0,1,86.43,180.92Z" />
      <path class="cls-1" d="M119.75,175.09h0a5.84,5.84,0,0,1-5.83,5.83H86.43a5.84,5.84,0,0,1-5.84-5.82h0a5.85,5.85,0,0,1,5.83-5.84H113.9a5.82,5.82,0,0,1,5.84,5.81Z" />
    </g>
    <g class="L">
      <path class="cls-1" d="M138.05,180.92h0a5.84,5.84,0,0,1-5.83-5.83h0V106.86a5.83,5.83,0,0,1,5.83-5.83h0a5.82,5.82,0,0,1,5.83,5.83v68.23A5.83,5.83,0,0,1,138.05,180.92Z" />
      <path class="cls-1" d="M171.36,175.09h0a5.84,5.84,0,0,1-5.83,5.83H138.05a5.84,5.84,0,0,1-5.83-5.83h0a5.83,5.83,0,0,1,5.83-5.83h27.49A5.83,5.83,0,0,1,171.36,175.09Z" />
    </g>
    <g class="E">
      <path class="cls-1" d="M187.67,180.92h0a5.83,5.83,0,0,1-5.83-5.82h0V106.86a5.85,5.85,0,0,1,5.83-5.84h0a5.83,5.83,0,0,1,5.83,5.83h0v68.23a5.84,5.84,0,0,1-5.83,5.83Z" />
      <path class="cls-1" d="M221,106.86h0a5.84,5.84,0,0,1-5.83,5.83h-27.5a5.83,5.83,0,0,1-5.83-5.82h0a5.85,5.85,0,0,1,5.83-5.84h27.49a5.82,5.82,0,0,1,5.84,5.81Z" />
      <path class="cls-1" d="M221,175.09h0a5.84,5.84,0,0,1-5.83,5.83h-27.5a5.83,5.83,0,0,1-5.83-5.82h0a5.85,5.85,0,0,1,5.83-5.84h27.49a5.82,5.82,0,0,1,5.84,5.81Z" />
      <path class="cls-1" d="M181.83,141h0a5.89,5.89,0,0,1,5.89-5.89h22.61a5.89,5.89,0,0,1,5.89,5.89h0a5.89,5.89,0,0,1-5.88,5.88H187.72A5.9,5.9,0,0,1,181.83,141Z" />
    </g>
    <g class="R">
      <path class="cls-1" d="M259.14,146.61A22.79,22.79,0,1,1,282,123.82,22.79,22.79,0,0,1,259.14,146.61Z" />
      <path class="cls-1" d="M242.11,180.92h0a5.84,5.84,0,0,1-5.84-5.83h0V106.86a5.84,5.84,0,0,1,5.84-5.83h0a5.84,5.84,0,0,1,5.83,5.83h0v68.23a5.84,5.84,0,0,1-5.83,5.83Z" />
      <path class="cls-1" d="M270.35,157.87a24.47,24.47,0,0,1,4.29,3,22.9,22.9,0,0,1,7.23,12.68,8.57,8.57,0,0,1,.14,1.51h0a5.84,5.84,0,0,1-5.83,5.83H276a5.8,5.8,0,0,1-5.55-4.91h0a11.09,11.09,0,0,0-11-9.31,24.15,24.15,0,0,1-15.76-5.8A22.74,22.74,0,0,1,236.39,148a3.35,3.35,0,0,0-.07-.44,5.12,5.12,0,0,1-.06-.78h0a5.81,5.81,0,0,1,11.48-1.28l.08.47a12,12,0,0,0,11.6,9.14,22.57,22.57,0,0,1,10.91,2.77" />
    </g>
  </g>
</svg>