<?xml version="1.0" encoding="utf-8"?>
<!-- Generator: Adobe Illustrator 21.1.0, SVG Export Plug-In . SVG Version: 6.00 Build 0)  -->
<svg version="1.1" id="Layer_1" xmlns="http://www.w3.org/2000/svg" xmlns:xlink="http://www.w3.org/1999/xlink" x="0px" y="0px"
	 viewBox="0 0 575.9 82.8" style="enable-background:new 0 0 575.9 82.8;" xml:space="preserve">
<style type="text/css">
	.st0{fill:#FFFFFF;}
	.st1{fill:none;stroke:#000000;stroke-width:2.33;stroke-linecap:round;stroke-linejoin:round;}
</style>
<title>Asset 4</title>
<g>
	<path class="st0" d="M41.1,30.7c3.2,0,5.8-2.6,5.8-5.8C46.9,12.2,36.7,2,24,2C11.4,2,1.2,12.2,1.2,24.8c0,0,0,0,0,0v0
		c0,12.6,10.2,22.8,22.8,22.8c6.2,0,11.2,4.9,11.3,11.1v0.2c0,0,0,0,0,0c-0.1,6.1-5,11.1-11.2,11.1c-6.2,0-11.3-5-11.3-11.2v-0.2
		c0-3.2-2.6-5.7-5.8-5.7c0,0,0,0-0.1,0c-3.2,0-5.8,2.6-5.8,5.8c0,12.6,10.2,22.9,22.9,22.9c12.6,0,22.9-10.2,22.9-22.9v0
		c0,0,0,0,0,0C46.9,46.2,36.6,36,24,36c-6.2,0-11.2-5-11.2-11.2c0-6.2,5-11.2,11.2-11.3c6.2,0,11.3,5,11.3,11.2v0.2
		C35.3,28.1,37.9,30.7,41.1,30.7z"/>
	<path class="st0" d="M212.3,30.3c3.2,0,5.8-2.6,5.8-5.8c0-12.6-10.2-22.9-22.9-22.9c-12.6,0-22.9,10.2-22.9,22.9v34
		c0,12.6,10.2,22.9,22.9,22.9c12.6,0,22.9-10.2,22.9-22.9c0-3.2-2.6-5.8-5.8-5.8c-3.2,0-5.8,2.6-5.8,5.7v0.2
		c0,6.2-5.1,11.2-11.3,11.2c-6.2,0-11.2-5.1-11.2-11.3v-34c0-6.2,5-11.3,11.2-11.3c6.2,0,11.3,5,11.3,11.2v0.2
		C206.5,27.7,209.1,30.3,212.3,30.3z"/>
	<path class="st0" d="M83.8,1.7c-4.4,0-8.4,1.2-11.9,3.3c-0.9-2-2.9-3.3-5.3-3.3h0c-3.2,0-5.8,2.6-5.8,5.8v68.2
		c0,3.2,2.6,5.8,5.8,5.8h0c3.2,0,5.8-2.6,5.8-5.8V44.3c3.3,1.9,7.1,3,11.2,3c12.6,0,22.8-10.2,22.9-22.8
		C106.5,11.9,96.3,1.7,83.8,1.7z M83.7,35.7c-6.2,0-11.2-5-11.2-11.2s5-11.2,11.2-11.2v0c6.2,0,11.2,5,11.2,11.2
		C94.9,30.7,89.9,35.7,83.7,35.7z"/>
	<path class="st0" d="M161.7,73.8L141,6.4c-0.4-1.9-1.7-3.6-3.7-4.3c0,0,0,0,0,0c-0.7-0.2-1.3-0.3-2-0.3c-0.7,0-1.3,0.1-2,0.3
		c0,0,0,0,0,0c-2,0.7-3.3,2.4-3.7,4.3L109,73.8c-1.1,3,0.4,6.3,3.4,7.5c0,0,0,0,0,0c3,1.1,6.3-0.5,7.4-3.5l5.7-18.6H145l5.7,18.6
		c1.1,3,4.4,4.6,7.4,3.5c0,0,0,0,0,0C161.2,80.2,162.7,76.8,161.7,73.8C161.7,73.8,161.7,73.8,161.7,73.8z M129.2,47.5l6.1-20.1
		l6.1,20.1H129.2z"/>
	<path class="st0" d="M269.6,1.7h-27.5h0h0c-1,0-2,0.3-2.8,0.7c-1.8,1-3.1,2.9-3.1,5.1v0v68.2v0c0,2.2,1.2,4.1,3.1,5.1
		c0.8,0.4,1.8,0.7,2.8,0.7h0h0h27.5c3.2,0,5.8-2.6,5.8-5.8v0c0-3.2-2.6-5.8-5.8-5.8h-21.7V47.5h16.8c3.2,0,5.9-2.6,5.9-5.9
		s-2.6-5.9-5.9-5.9h-16.8V13.4h21.7c3.2,0,5.8-2.6,5.8-5.8v0C275.4,4.3,272.8,1.7,269.6,1.7z"/>
	<path class="st0" d="M349.9,1.2L349.9,1.2c-3.2,0-5.8,2.6-5.8,5.8v68.2c0,3.2,2.6,5.8,5.8,5.8h0c3.2,0,5.8-2.6,5.8-5.8V7
		C355.7,3.8,353.1,1.2,349.9,1.2z"/>
	<path class="st0" d="M406.6,69.4H385V7c0-3.2-2.6-5.8-5.8-5.8h0c-3.2,0-5.8,2.6-5.8,5.8v68c0,0.1,0,0.1,0,0.2v0
		c0,3.2,2.6,5.8,5.8,5.8h0h0h27.5c3.2,0,5.8-2.6,5.8-5.8v0C412.5,72,409.8,69.4,406.6,69.4z"/>
	<path class="st0" d="M458.3,69.4h-21.7V7c0-3.2-2.6-5.8-5.8-5.8h0c-3.2,0-5.8,2.6-5.8,5.8v68.2v0v0c0,3.2,2.6,5.8,5.8,5.8h0
		c0.1,0,0.1,0,0.2,0h27.3c3.2,0,5.8-2.6,5.8-5.8v0C464.1,72,461.5,69.4,458.3,69.4z"/>
	<path class="st0" d="M574.6,73.7c-1.3-6.7-5.5-12.4-11.5-15.7h0c-3.4-1.8-7.1-2.8-11-2.8c-5.3,0-10-3.6-11.5-8.6v-2.9
		c3.3,1.9,7.1,3,11.2,3c12.6,0,22.8-10.2,22.9-22.8c0-12.6-10.1-22.8-22.7-22.8c-4.4,0-8.5,1.2-11.9,3.3c-0.9-2-2.9-3.3-5.3-3.3h0
		c-3.2,0-5.8,2.6-5.8,5.8v39.3c0,0.2,0,0.4,0,0.6c0,0.2,0,0.4,0,0.6v27.7c0,3.2,2.6,5.8,5.8,5.8h0c3.2,0,5.8-2.6,5.8-5.8V63.9
		c3.5,1.9,7.5,2.9,11.5,2.9c4,0,7.8,2.2,9.8,5.7c0.6,1.1,1.1,2.4,1.3,3.6c0.4,2.8,2.8,4.8,5.5,4.9h0.2c3.2,0,5.8-2.6,5.8-5.8
		C574.7,74.7,574.7,74.2,574.6,73.7z M551.9,12.8L551.9,12.8C551.9,12.8,551.9,12.8,551.9,12.8c6.2,0,11.2,5,11.2,11.2
		c0,6.2-5,11.1-11.2,11.1c-6.2,0-11.2-5-11.2-11.2C540.7,17.8,545.7,12.8,551.9,12.8z"/>
	<path class="st0" d="M507.9,1.2h-27.5h0c-3.2,0-5.8,2.6-5.8,5.8v0v33.9c0,0.1,0,0.1,0,0.2s0,0.1,0,0.2V75c0,0.1,0,0.1,0,0.2v0
		c0,3.2,2.6,5.8,5.8,5.8h0h0h27.5c3.2,0,5.8-2.6,5.8-5.8v0c0-3.2-2.6-5.8-5.8-5.8h-21.6V47H503c3.2,0,5.9-2.6,5.9-5.9
		s-2.6-5.9-5.9-5.9h-16.8V12.8h21.7c3.2,0,5.8-2.6,5.8-5.8v0C513.7,3.8,511.1,1.2,507.9,1.2z"/>
	<path class="st0" d="M327.2,1.2h-27.5c-3.2,0-5.8,2.6-5.8,5.8v0v68.2c0,3.2,2.6,5.8,5.8,5.8h0c3.2,0,5.8-2.6,5.8-5.8V47h16.8
		c3.2,0,5.9-2.6,5.9-5.9s-2.6-5.9-5.9-5.9h-16.8V12.8h21.7c3.2,0,5.8-2.6,5.8-5.8v0C333,3.8,330.4,1.2,327.2,1.2z"/>
</g>
<g id="Layer_2">
	<g id="logo">
		<path class="st1" d="M1.2,24.9L1.2,24.9C1.2,12.2,11.4,2,24,2c12.6,0,22.9,10.2,22.9,22.9l0,0c0,3.2-2.6,5.8-5.8,5.8l0,0l0,0
			c-3.2,0-5.8-2.6-5.8-5.7v-0.2c0-6.2-5.1-11.2-11.3-11.2c-6.2,0-11.2,5.1-11.2,11.3l0,0c0,3.2-2.6,5.8-5.8,5.8l0,0
			C3.8,30.7,1.2,28.1,1.2,24.9L1.2,24.9"/>
		<line class="st1" x1="41.1" y1="30.7" x2="41.1" y2="30.7"/>
		<path class="st1" d="M46.9,58.8L46.9,58.8c0,12.6-10.2,22.9-22.9,22.9S1.2,71.5,1.2,58.8l0,0c0-3.2,2.6-5.8,5.8-5.8c0,0,0,0,0.1,0
			l0,0c3.2,0,5.8,2.6,5.8,5.7v0.2c0,6.2,5.1,11.2,11.3,11.2c6.2,0,11.2-5.1,11.2-11.3l0,0c0-3.2,2.6-5.8,5.8-5.8l0,0
			C44.3,53,46.9,55.6,46.9,58.8L46.9,58.8L46.9,58.8"/>
		<line class="st1" x1="7" y1="53" x2="7" y2="53"/>
		<path class="st1" d="M1.2,24.9L1.2,24.9c0-3.2,2.6-5.8,5.8-5.8c0,0,0,0,0.1,0l0,0c3.2,0,5.8,2.6,5.8,5.8l0,0
			C12.8,31,17.8,36,24,36c12.6,0,22.9,10.2,22.9,22.8c0,0,0,0,0,0l0,0c0,3.2-2.6,5.8-5.8,5.8c0,0,0,0,0,0l0,0
			c-3.2,0-5.8-2.6-5.8-5.7v-0.2c-0.1-6.2-5.1-11.1-11.3-11.1C11.4,47.6,1.2,37.4,1.2,24.9L1.2,24.9z"/>
		<path class="st1" d="M184,58.5c0,6.2,5,11.3,11.2,11.3c6.2,0,11.3-5,11.3-11.2v-0.2c0-3.2,2.6-5.7,5.8-5.7l0,0
			c3.2,0,5.8,2.6,5.8,5.8l0,0c0,12.6-10.2,22.9-22.9,22.9c-12.6,0-22.9-10.2-22.9-22.9v-34c0-12.6,10.2-22.9,22.9-22.9
			c12.6,0,22.9,10.2,22.9,22.9l0,0c0,3.2-2.6,5.8-5.8,5.8l0,0c-3.2,0-5.8-2.6-5.8-5.7v-0.2c0-6.2-5.1-11.2-11.3-11.2
			c-6.2,0-11.2,5.1-11.2,11.3l0,0V58.5z"/>
		<line class="st1" x1="212.3" y1="52.7" x2="212.3" y2="52.7"/>
		<path class="st1" d="M83.6,47.3C71,47.3,60.9,37,60.9,24.4S71.2,1.7,83.8,1.7c12.6,0,22.7,10.2,22.7,22.8
			C106.4,37.1,96.2,47.3,83.6,47.3z M83.6,13.3c-6.2,0-11.2,5.1-11.2,11.2s5.1,11.2,11.2,11.2c6.2,0,11.2-5,11.2-11.2
			C94.8,18.3,89.8,13.3,83.6,13.3L83.6,13.3z"/>
		<path class="st1" d="M66.6,1.7L66.6,1.7c3.2,0,5.8,2.6,5.8,5.8v68.2c0,3.2-2.6,5.8-5.8,5.8h0c-3.2,0-5.8-2.6-5.8-5.8V7.5
			C60.8,4.3,63.4,1.7,66.6,1.7z"/>
		<path class="st1" d="M112.4,81.3L112.4,81.3c-3-1.1-4.5-4.4-3.4-7.4l20.9-68.3c1.1-3,4.4-4.6,7.4-3.5c0,0,0,0,0,0l0,0
			c3,1.1,4.6,4.4,3.5,7.4c0,0,0,0,0,0l-20.9,68.3C118.8,80.8,115.5,82.4,112.4,81.3C112.5,81.3,112.5,81.3,112.4,81.3z"/>
		<path class="st1" d="M133.3,2.1L133.3,2.1c-3,1.1-4.6,4.4-3.5,7.4c0,0,0,0,0,0l20.9,68.3c1.1,3,4.4,4.6,7.4,3.5c0,0,0,0,0,0l0,0
			c3-1.1,4.6-4.4,3.5-7.4c0,0,0,0,0,0L140.8,5.5C139.7,2.5,136.3,1,133.3,2.1C133.3,2.1,133.3,2.1,133.3,2.1z"/>
		<path class="st1" d="M115.7,53.4L115.7,53.4c0-3.2,2.6-5.8,5.8-5.8H149c3.2,0,5.8,2.6,5.8,5.8v0c0,3.2-2.6,5.8-5.8,5.8h-27.5
			C118.3,59.2,115.7,56.6,115.7,53.4z"/>
		<path class="st1" d="M236.3,7.5L236.3,7.5c0-3.2,2.6-5.8,5.8-5.8h27.5c3.2,0,5.8,2.6,5.8,5.8v0c0,3.2-2.6,5.8-5.8,5.8h-27.5
			C238.9,13.4,236.3,10.8,236.3,7.5z"/>
		<path class="st1" d="M242.1,1.7L242.1,1.7c3.2,0,5.8,2.6,5.8,5.8v68.2c0,3.2-2.6,5.8-5.8,5.8h0c-3.2,0-5.8-2.6-5.8-5.8V7.5
			C236.3,4.3,238.9,1.7,242.1,1.7z"/>
		<path class="st1" d="M236.3,75.8L236.3,75.8c0-3.2,2.6-5.8,5.8-5.8h27.5c3.2,0,5.8,2.6,5.8,5.8v0c0,3.2-2.6,5.8-5.8,5.8h-27.5
			C238.9,81.6,236.3,79,236.3,75.8z"/>
		<path class="st1" d="M270.7,41.7L270.7,41.7c0,3.2-2.6,5.9-5.9,5.9h-22.6c-3.2,0-5.9-2.6-5.9-5.9v0c0-3.2,2.6-5.9,5.9-5.9h22.6
			C268,35.8,270.7,38.4,270.7,41.7z"/>
		<path class="st1" d="M349.9,1.2L349.9,1.2c3.2,0,5.8,2.6,5.8,5.8v68.2c0,3.2-2.6,5.8-5.8,5.8h0c-3.2,0-5.8-2.6-5.8-5.8V7
			C344.1,3.8,346.7,1.2,349.9,1.2z"/>
		<path class="st1" d="M379.1,1.2L379.1,1.2c3.2,0,5.8,2.6,5.8,5.8v68.2c0,3.2-2.6,5.8-5.8,5.8h0c-3.2,0-5.8-2.6-5.8-5.8V7
			C373.3,3.8,375.9,1.2,379.1,1.2z"/>
		<path class="st1" d="M373.3,75.2L373.3,75.2c0-3.2,2.6-5.8,5.8-5.8h27.5c3.2,0,5.8,2.6,5.8,5.8v0c0,3.2-2.6,5.8-5.8,5.8h-27.5
			C375.9,81.1,373.3,78.5,373.3,75.2z"/>
		<path class="st1" d="M430.8,1.2L430.8,1.2c3.2,0,5.8,2.6,5.8,5.8v68.2c0,3.2-2.6,5.8-5.8,5.8h0c-3.2,0-5.8-2.6-5.8-5.8V7
			C424.9,3.8,427.5,1.2,430.8,1.2z"/>
		<path class="st1" d="M424.9,75.2L424.9,75.2c0-3.2,2.6-5.8,5.8-5.8h27.5c3.2,0,5.8,2.6,5.8,5.8v0c0,3.2-2.6,5.8-5.8,5.8h-27.5
			C427.5,81.1,424.9,78.4,424.9,75.2z"/>
		<path class="st1" d="M551.9,46.8c-12.6,0-22.8-10.3-22.7-22.9S539.4,1.1,552,1.2c12.6,0,22.7,10.3,22.7,22.8
			C574.7,36.6,564.4,46.8,551.9,46.8z M551.9,12.8c-6.2,0-11.2,5.1-11.2,11.2c0,6.2,5.1,11.2,11.2,11.2c6.2,0,11.1-5,11.2-11.1
			C563.1,17.8,558.1,12.8,551.9,12.8C551.9,12.8,551.9,12.8,551.9,12.8L551.9,12.8z"/>
		<path class="st1" d="M534.8,1.2L534.8,1.2c3.2,0,5.8,2.6,5.8,5.8v68.2c0,3.2-2.6,5.8-5.8,5.8h0c-3.2,0-5.8-2.6-5.8-5.8V7
			C529,3.8,531.6,1.2,534.8,1.2z"/>
		<path class="st1" d="M563.1,58c6,3.3,10.2,9,11.5,15.7c0.1,0.5,0.1,1,0.1,1.5l0,0c0,3.2-2.6,5.8-5.8,5.8l0,0h-0.2
			c-2.8-0.1-5.1-2.2-5.5-4.9l0,0c-0.2-1.3-0.6-2.5-1.3-3.6c-2-3.5-5.7-5.7-9.8-5.7c-5.8,0-11.4-2.1-15.8-5.8
			c-3.8-3.4-6.4-7.9-7.3-12.9l-0.1-0.4c0-0.3-0.1-0.5,0-0.8l0,0c0-3.2,2.6-5.8,5.8-5.8c2.7,0,5,1.9,5.6,4.5l0.1,0.5
			c1.3,5.3,6.1,9.1,11.6,9.1C555.9,55.2,559.7,56.2,563.1,58"/>
		<line class="st1" x1="568.9" y1="81.1" x2="568.9" y2="81.1"/>
		<path class="st1" d="M480.4,1.2L480.4,1.2c3.2,0,5.8,2.6,5.8,5.8v68.2c0,3.2-2.6,5.8-5.8,5.8h0c-3.2,0-5.8-2.6-5.8-5.8V7
			C474.6,3.8,477.2,1.2,480.4,1.2z"/>
		<path class="st1" d="M474.6,7L474.6,7c0-3.2,2.6-5.8,5.8-5.8h27.5c3.2,0,5.8,2.6,5.8,5.8v0c0,3.2-2.6,5.8-5.8,5.8h-27.5
			C477.2,12.8,474.6,10.2,474.6,7z"/>
		<path class="st1" d="M474.5,75.2L474.5,75.2c0-3.2,2.6-5.8,5.8-5.8h27.5c3.2,0,5.8,2.6,5.8,5.8v0c0,3.2-2.6,5.8-5.8,5.8h-27.5
			C477.2,81.1,474.5,78.5,474.5,75.2z"/>
		<path class="st1" d="M508.9,41.1L508.9,41.1c0,3.2-2.6,5.9-5.9,5.9h-22.6c-3.2,0-5.9-2.6-5.9-5.9l0,0c0-3.2,2.6-5.9,5.9-5.9H503
			C506.3,35.2,508.9,37.9,508.9,41.1z"/>
		<path class="st1" d="M299.7,1.2L299.7,1.2c3.2,0,5.8,2.6,5.8,5.8v68.2c0,3.2-2.6,5.8-5.8,5.8h0c-3.2,0-5.8-2.6-5.8-5.8V7
			C293.9,3.8,296.5,1.2,299.7,1.2z"/>
		<path class="st1" d="M293.9,7L293.9,7c0-3.2,2.6-5.8,5.8-5.8h27.5c3.2,0,5.8,2.6,5.8,5.8v0c0,3.2-2.6,5.8-5.8,5.8h-27.5
			C296.5,12.8,293.9,10.2,293.9,7z"/>
		<path class="st1" d="M328.3,41.1L328.3,41.1c0,3.2-2.6,5.9-5.9,5.9h-22.6c-3.2,0-5.9-2.6-5.9-5.9l0,0c0-3.2,2.6-5.9,5.9-5.9h22.6
			C325.6,35.2,328.3,37.9,328.3,41.1z"/>
	</g>
</g>
</svg>
