<svg xmlns="http://www.w3.org/2000/svg" viewBox="0 0 283.18 182.05"><defs><style>.cls-1{fill:none;stroke:#000;stroke-linecap:round;stroke-linejoin:round;stroke-width:2.33px;}</style></defs><title>Asset 1</title><g id="Layer_2" data-name="Layer 2"><g id="logo"><path class="cls-1" d="M1.17,24.32h0a22.87,22.87,0,0,1,45.74,0h0a5.81,5.81,0,0,1-5.81,5.81h0a5.81,5.81,0,0,1-5.81-5.73v-.16a11.24,11.24,0,0,0-22.48.08h0A5.81,5.81,0,0,1,7,30.13H7a5.81,5.81,0,0,1-5.81-5.81h0"/><line class="cls-1" x1="41.09" y1="30.13" x2="41.09" y2="30.13"/><path class="cls-1" d="M46.9,58.3h0a22.87,22.87,0,0,1-45.74,0h0A5.81,5.81,0,0,1,7,52.49H7a5.81,5.81,0,0,1,5.81,5.73v.16a11.24,11.24,0,0,0,22.48-.08h0a5.81,5.81,0,0,1,5.81-5.81h0A5.81,5.81,0,0,1,46.9,58.3h0"/><line class="cls-1" x1="6.98" y1="52.49" x2="6.98" y2="52.49"/><path class="cls-1" d="M1.17,24.32h0A5.81,5.81,0,0,1,7,18.5H7a5.81,5.81,0,0,1,5.81,5.81h0A11.23,11.23,0,0,0,24,35.51,22.86,22.86,0,0,1,46.9,58.3h0a5.81,5.81,0,0,1-5.81,5.81h0a5.81,5.81,0,0,1-5.81-5.73v-.16A11.23,11.23,0,0,0,24,47.11,22.86,22.86,0,0,1,1.17,24.32Z"/><path class="cls-1" d="M184,57.95a11.24,11.24,0,0,0,22.48.08v-.16a5.81,5.81,0,0,1,5.81-5.73h0a5.81,5.81,0,0,1,5.81,5.81h0a22.87,22.87,0,0,1-45.74,0V24a22.87,22.87,0,0,1,45.74,0h0a5.81,5.81,0,0,1-5.81,5.81h0A5.81,5.81,0,0,1,206.45,24v-.16A11.24,11.24,0,0,0,184,24Z"/><line class="cls-1" x1="212.27" y1="52.13" x2="212.27" y2="52.13"/><path class="cls-1" d="M83.62,46.75A22.79,22.79,0,1,1,106.48,24,22.86,22.86,0,0,1,83.62,46.75Zm0-34A11.2,11.2,0,1,0,94.86,24,11.23,11.23,0,0,0,83.62,12.76Z"/><rect class="cls-1" x="60.75" y="1.17" width="11.67" height="79.9" rx="5.83" ry="5.83"/><path class="cls-1" d="M112.44,80.74h0A5.81,5.81,0,0,1,109,73.29L129.84,5a5.81,5.81,0,0,1,7.45-3.47h0A5.81,5.81,0,0,1,140.76,9l-20.88,68.3A5.81,5.81,0,0,1,112.44,80.74Z"/><path class="cls-1" d="M133.32,1.52h0A5.81,5.81,0,0,0,129.85,9l20.88,68.3a5.81,5.81,0,0,0,7.45,3.47h0a5.81,5.81,0,0,0,3.47-7.45L140.77,5A5.81,5.81,0,0,0,133.32,1.52Z"/><rect class="cls-1" x="129.47" y="33.24" width="11.67" height="39.16" rx="5.83" ry="5.83" transform="translate(82.49 188.12) rotate(-90)"/><rect class="cls-1" x="250.02" y="-12.58" width="11.67" height="39.16" rx="5.83" ry="5.83" transform="translate(248.85 262.85) rotate(-90)"/><rect class="cls-1" x="236.27" y="1.17" width="11.67" height="79.9" rx="5.83" ry="5.83"/><rect class="cls-1" x="250.02" y="55.65" width="11.67" height="39.16" rx="5.83" ry="5.83" transform="translate(180.62 331.09) rotate(-90)"/><rect class="cls-1" x="247.58" y="23.93" width="11.76" height="34.38" rx="5.88" ry="5.88" transform="translate(294.58 -212.35) rotate(90)"/><rect class="cls-1" x="51.34" y="100.99" width="11.67" height="79.9" rx="5.83" ry="5.83"/><rect class="cls-1" x="80.59" y="100.99" width="11.67" height="79.9" rx="5.83" ry="5.83"/><rect class="cls-1" x="94.34" y="155.47" width="11.67" height="39.16" rx="5.83" ry="5.83" transform="translate(-74.88 275.22) rotate(-90)"/><rect class="cls-1" x="132.22" y="100.99" width="11.67" height="79.9" rx="5.83" ry="5.83"/><rect class="cls-1" x="145.96" y="155.47" width="11.67" height="39.16" rx="5.83" ry="5.83" transform="translate(-23.25 326.85) rotate(-90)"/><path class="cls-1" d="M259.14,146.57A22.79,22.79,0,1,1,282,123.78,22.86,22.86,0,0,1,259.14,146.57Zm0-34a11.2,11.2,0,1,0,11.24,11.2A11.23,11.23,0,0,0,259.14,112.58Z"/><rect class="cls-1" x="236.28" y="100.99" width="11.67" height="79.9" rx="5.83" ry="5.83"/><path class="cls-1" d="M270.35,157.84a22.9,22.9,0,0,1,11.52,15.7,8,8,0,0,1,.14,1.51h0a5.83,5.83,0,0,1-5.83,5.83H276a5.83,5.83,0,0,1-5.55-4.91h0a10.85,10.85,0,0,0-1.27-3.64,11.24,11.24,0,0,0-9.76-5.67,24.24,24.24,0,0,1-15.76-5.8A22.77,22.77,0,0,1,236.4,148l-.07-.43a5.87,5.87,0,0,1-.05-.78h0a5.81,5.81,0,0,1,11.47-1.29l.09.47a12,12,0,0,0,11.6,9.14,22.75,22.75,0,0,1,10.91,2.77"/><line class="cls-1" x1="276.18" y1="180.88" x2="276.18" y2="180.88"/><rect class="cls-1" x="181.84" y="100.99" width="11.67" height="79.9" rx="5.83" ry="5.83"/><rect class="cls-1" x="195.59" y="87.24" width="11.67" height="39.16" rx="5.83" ry="5.83" transform="translate(94.6 308.24) rotate(-90)"/><rect class="cls-1" x="195.59" y="155.47" width="11.67" height="39.16" rx="5.83" ry="5.83" transform="translate(26.37 376.47) rotate(-90)"/><rect class="cls-1" x="193.15" y="123.75" width="11.76" height="34.38" rx="5.88" ry="5.88" transform="translate(339.97 -58.1) rotate(90)"/><rect class="cls-1" x="1.17" y="100.99" width="11.67" height="79.9" rx="5.83" ry="5.83"/><rect class="cls-1" x="14.91" y="87.24" width="11.67" height="39.16" rx="5.83" ry="5.83" transform="translate(-86.07 127.56) rotate(-90)"/><rect class="cls-1" x="12.48" y="123.75" width="11.76" height="34.38" rx="5.88" ry="5.88" transform="translate(159.29 122.58) rotate(90)"/></g></g></svg>