<svg viewBox="0 0 575.89 82.8" xmlns="http://www.w3.org/2000/svg"><g fill="none" stroke="#231f20" stroke-linecap="round" stroke-linejoin="round" stroke-width="2.33"><path d="m1.17 24.86a22.87 22.87 0 0 1 45.73 0 5.81 5.81 0 0 1 -5.81 5.81 5.82 5.82 0 0 1 -5.82-5.73v-.17a11.24 11.24 0 0 0 -22.47.08 5.82 5.82 0 0 1 -5.8 5.82 5.81 5.81 0 0 1 -5.81-5.81"/><path d="m46.9 58.84a22.87 22.87 0 0 1 -45.73 0 5.81 5.81 0 0 1 5.83-5.84 5.8 5.8 0 0 1 5.81 5.73v.16a11.24 11.24 0 0 0 22.48-.08 5.82 5.82 0 0 1 5.8-5.81 5.81 5.81 0 0 1 5.81 5.81"/><path d="m1.17 24.85a5.81 5.81 0 0 1 5.83-5.85 5.82 5.82 0 0 1 5.82 5.82 11.23 11.23 0 0 0 11.18 11.23 22.85 22.85 0 0 1 22.9 22.79 5.82 5.82 0 0 1 -5.81 5.82 5.82 5.82 0 0 1 -5.82-5.74v-.16a11.22 11.22 0 0 0 -11.27-11.12 22.84 22.84 0 0 1 -22.83-22.78z"/><path d="m184 58.48a11.24 11.24 0 0 0 22.48.08v-.16a5.81 5.81 0 0 1 5.82-5.73 5.81 5.81 0 0 1 5.81 5.81 22.87 22.87 0 0 1 -45.74 0v-34a22.87 22.87 0 0 1 45.74 0 5.81 5.81 0 0 1 -5.81 5.81 5.81 5.81 0 0 1 -5.82-5.73v-.16a11.24 11.24 0 0 0 -22.48.1z"/><path d="m83.62 47.29a22.8 22.8 0 1 1 22.86-22.79 22.86 22.86 0 0 1 -22.86 22.79zm0-34a11.2 11.2 0 1 0 11.24 11.21 11.23 11.23 0 0 0 -11.24-11.2z"/><rect height="79.9" rx="5.83" width="11.67" x="60.75" y="1.7"/><path d="m112.44 81.28a5.81 5.81 0 0 1 -3.44-7.45l20.88-68.3a5.81 5.81 0 0 1 7.45-3.47 5.8 5.8 0 0 1 3.47 7.45l-20.87 68.3a5.82 5.82 0 0 1 -7.49 3.47z"/><path d="m133.32 2.06a5.81 5.81 0 0 0 -3.47 7.45l20.87 68.3a5.82 5.82 0 0 0 7.46 3.47 5.81 5.81 0 0 0 3.47-7.45l-20.88-68.3a5.8 5.8 0 0 0 -7.45-3.47z"/><rect height="39.16" rx="5.83" transform="matrix(0 -1 1 0 81.95 188.66)" width="11.67" x="129.47" y="33.77"/><rect height="39.16" rx="5.83" transform="matrix(0 -1 1 0 248.31 263.39)" width="11.67" x="250.02" y="-12.04"/><rect height="79.9" rx="5.83" width="11.67" x="236.27" y="1.7"/><rect height="39.16" rx="5.83" transform="matrix(0 -1 1 0 180.08 331.62)" width="11.67" x="250.02" y="56.19"/><rect height="34.38" rx="5.88" transform="matrix(0 1 -1 0 295.12 -211.81)" width="11.76" x="247.58" y="24.46"/><rect height="79.9" rx="5.83" width="11.67" x="344.06" y="1.17"/><rect height="79.9" rx="5.83" width="11.67" x="373.31" y="1.17"/><rect height="39.16" rx="5.83" transform="matrix(0 -1 1 0 317.65 468.12)" width="11.67" x="387.05" y="55.65"/><rect height="79.9" rx="5.83" width="11.67" x="424.93" y="1.17"/><rect height="39.16" rx="5.83" transform="matrix(0 -1 1 0 369.28 519.74)" width="11.67" x="438.68" y="55.65"/><path d="m551.86 46.75a22.79 22.79 0 1 1 22.87-22.75 22.85 22.85 0 0 1 -22.87 22.75zm0-34a11.2 11.2 0 1 0 11.24 11.25 11.23 11.23 0 0 0 -11.24-11.24z"/><rect height="79.9" rx="5.83" width="11.67" x="528.99" y="1.17"/><path d="m563.07 58a23.41 23.41 0 0 1 4.29 3 22.73 22.73 0 0 1 7.22 12.67 7.73 7.73 0 0 1 .15 1.51 5.84 5.84 0 0 1 -5.83 5.84h-.17a5.82 5.82 0 0 1 -5.55-4.91 10.74 10.74 0 0 0 -1.27-3.64 11.24 11.24 0 0 0 -9.76-5.67 24.23 24.23 0 0 1 -15.76-5.79 22.74 22.74 0 0 1 -7.27-12.91c0-.14 0-.29-.08-.44a6.49 6.49 0 0 1 0-.77 5.81 5.81 0 0 1 11.47-1.29l.09.47a12 12 0 0 0 11.6 9.14 22.72 22.72 0 0 1 10.86 2.79"/><rect height="79.9" rx="5.83" width="11.67" x="474.56" y="1.17"/><rect height="39.16" rx="5.83" transform="matrix(0 -1 1 0 487.14 501.14)" width="11.67" x="488.3" y="-12.58"/><rect height="39.16" rx="5.83" transform="matrix(0 -1 1 0 418.9 569.37)" width="11.67" x="488.3" y="55.65"/><rect height="34.38" rx="5.88" transform="matrix(0 1 -1 0 532.86 -450.63)" width="11.76" x="485.87" y="23.93"/><rect height="79.9" rx="5.83" width="11.67" x="293.88" y="1.17"/><rect height="39.16" rx="5.83" transform="matrix(0 -1 1 0 306.46 320.46)" width="11.67" x="307.63" y="-12.58"/><rect height="34.38" rx="5.88" transform="matrix(0 1 -1 0 352.19 -269.96)" width="11.76" x="305.19" y="23.93"/></g></svg>