<?xml version="1.0" encoding="utf-8"?>
<!-- Generator: Adobe Illustrator 21.1.0, SVG Export Plug-In . SVG Version: 6.00 Build 0)  -->
<svg version="1.1" id="Layer_1" xmlns="http://www.w3.org/2000/svg" xmlns:xlink="http://www.w3.org/1999/xlink" x="0px" y="0px"
	 viewBox="0 0 1296 864" style="enable-background:new 0 0 1296 864;" xml:space="preserve">
<style type="text/css">
	.st0{fill:#010101;}
	.st1{fill:none;stroke:#010101;stroke-width:3;stroke-linejoin:round;}
</style>
<g>
	<path class="st0" d="M17.1,495.5c0-8,10.4-13.9,11.1-13c8.7,12.8,25,23.5,46.1,23.5c21.3,0,33.4-8.7,33.4-23.8
		c0-17.3-18-21.3-38.3-26.1c-23.7-5.5-48.3-13.8-48.2-44.8c0-26,22.6-44.5,55.2-44.4c34.1,0.1,52.5,16.2,52.5,27.3
		c0,8.8-10.9,14.2-11.4,13.5c-8-11.6-23.2-20.6-40.9-20.7c-19.2,0-31.7,9.2-31.8,23.4c0,16.8,14.9,19.4,36.2,24.4
		c26,6,51.1,16.2,51,45.8c0,28.2-21.9,45.6-57.6,45.6C37.7,526,17.1,508,17.1,495.5z"/>
	<path class="st0" d="M162.4,410.8c0-0.7,3.8-2.6,8.5-2.6c6.9,0,14.4,3.8,14.6,19.9c8.8-13.5,21.8-21.5,40-21.5
		c30.5,0.1,53.2,23.5,53.1,59.7c-0.1,35.7-22.6,60.1-54.1,60c-18.9,0-32.6-10-39-21.4l-0.1,63.2l-23.4,0L162.4,410.8z M256,466.5
		c0-23.7-14.6-40.5-35-40.5c-17.5,0-29.6,9.2-35.5,23.6l0,23.9c0,19.2,16,33.4,35,33.4C241.7,507,255.9,490.7,256,466.5z"/>
	<path class="st0" d="M301.1,493.6c0-26.3,25.2-37.6,76.5-38.4l3.1,0l0-2.4c0-17.3-9.9-26.8-28.1-26.8c-17.3,0-27.5,8.9-32.7,19.3
		c0,0.2-14.4,0-14.4-11.4c0-10.9,16.6-27.2,48.8-27.1c32.2,0.1,49.7,16.7,49.6,45.5l-0.1,71.2l-23,0c0,0,0.2-3.3,0-17
		c-8.8,12.3-23.7,19.6-41,19.6C315.5,526,301.1,513,301.1,493.6z M380.7,478.6l0-8.8l-6.4,0.2c-33.1,1.1-50.2,7.2-50.2,22.6
		c0,10.2,8,16.6,21.5,16.6C366,509.3,380.6,496.6,380.7,478.6z"/>
	<path class="st0" d="M431.8,466.6c0.1-34.6,25.2-59.6,59.3-59.5c33.8,0.1,48.7,20.9,48.7,31.6c0,9.7-13.3,11.6-14,10.4
		c-5.2-12.6-14.9-22.3-34.3-22.3c-21.3,0-37.4,16.7-37.5,39.9c0,23.4,15.8,40.5,37.3,40.5c19.2,0,29.1-9.7,34.4-22.2
		c0.7-1.2,14,0.5,13.9,10.7c0,10.4-15.2,31.2-48.8,31.2C456.6,526.8,431.8,501.6,431.8,466.6z"/>
	<path class="st0" d="M561,467.5c0.1-34.6,24.7-60.3,58.3-60.2c32.9,0.1,54.6,23.3,54.6,57.4l0,1.9c0,5-1.7,6.9-7.1,6.9l-84-0.1
		c1.6,21.1,17.2,35.3,38.8,35.3c19.9,0,29.8-8.7,35.8-18.9c0.5-0.5,12.3,1.7,12.3,11.6c0,9.9-17.6,25.8-48.6,25.7
		C585.1,527,561,503,561,467.5z M583.1,457.4l68.2,0.1c-1.1-19.6-13.2-32.4-32.1-32.5C600.4,425,585.9,438.5,583.1,457.4z"/>
	<path class="st0" d="M690.4,410.3l23.7,0l0-8.5c0-28.6,13.6-41.9,36.3-41.8c17.5,0,25.5,7.4,25.5,15.4c0,6.6-5.2,10.6-5.7,10.2
		c-3.3-3.3-9.9-6.6-17-6.7c-11.4,0-16.3,7.1-16.4,23.2l0,8.3l29.3,0.1l0,19.2l-28.9,0l-0.2,94.7l-23.2,0l0.2-94.7l-23.7,0
		L690.4,410.3z M785.3,373c0-8.5,5.2-13.2,14-13.2c9,0,14,4.8,13.9,13.3c0,8.5-5.2,13-14,13C790.5,386,785.3,381.3,785.3,373z
		 M787.4,420.6c0-8.5,4.5-11.4,10.4-11.3l2.6,0c6.2,0,10.4,2.6,10.4,11.4l-0.2,103.7l-23.4,0L787.4,420.6z"/>
	<path class="st0" d="M848.8,364.4c0-0.7,4-2.6,8.5-2.6c7.3,0,14.9,3.8,14.9,20.1l-0.2,142.5l-23.4,0L848.8,364.4z"/>
	<path class="st0" d="M910.3,364.5c0-0.7,4-2.6,8.5-2.6c7.3,0,14.9,3.8,14.9,20.1l-0.2,142.5l-23.4,0L910.3,364.5z"/>
	<path class="st0" d="M963.8,468.2c0.1-34.6,24.7-60.3,58.3-60.2c32.9,0.1,54.6,23.3,54.6,57.4l0,1.9c0,5-1.7,6.9-7.1,6.9l-84-0.1
		c1.6,21.1,17.2,35.3,38.8,35.3c19.9,0,29.8-8.7,35.8-18.9c0.5-0.5,12.3,1.7,12.3,11.6c0,9.9-17.6,25.8-48.6,25.7
		C987.9,527.7,963.8,503.7,963.8,468.2z M985.9,458.1l68.2,0.1c-1.1-19.6-13.2-32.4-32.1-32.5C1003.2,425.7,988.7,439.2,985.9,458.1
		z"/>
	<path class="st0" d="M1128.9,429.7c5-14,14.5-21.5,28.9-21.5c11.8,0,18.7,5.7,18.7,15.2c0,9-6.6,12.5-7.1,12.1c-3.5-2.8-8-5-14.4-5
		c-18.5,0-25.8,17.9-25.9,44.2l-0.1,50.2l-23.4,0l0.2-112.4c0-0.7,3.8-2.6,8.5-2.6C1121.1,409.8,1128.6,413.6,1128.9,429.7z"/>
	<path class="st0" d="M1192.4,503.7c0-7.3,8.5-11.1,9.2-10.6c7.6,9.7,20.3,17.1,38.3,17.1c16.1,0,25.1-5.9,25.1-15.3
		c0-11.6-10.6-13.7-29.3-17.8c-16.8-3.6-40-8.8-39.9-33c0-21.3,17.8-35.7,45.5-35.7c29.1,0.1,43.8,12.4,43.7,23
		c0,7.3-9,11.6-9.5,10.9c-7.1-9.5-18.9-16.1-33.3-16.2c-16.1,0-24.6,6.1-24.6,15.6c0,10.4,9.9,12.8,28.4,16.9
		c17.5,3.8,41.9,9.1,41.8,33.7c0,21.8-18,35.7-47.4,35.7C1208.7,527.8,1192.4,514.5,1192.4,503.7z"/>
</g>
<path class="st1" d="M1077.9,574.4l-14.2-12.4l-18.7,3.7l-18.7,3.7l-18.7,3.7l-17.6,3.5l-15.4,11.1l-13.6,9.8l-4,18.6l-4,18.6
	l-1.8,8.4l4.9,18.4l4.9,18.4l0.9,3.3l13.9,13l13.9,13l12.3,11.5l19-0.1l19-0.1l1.5,0l17.9-6.4l17.9-6.4l11.1-4l7.7-17.4l4.9-11
	l4.3-18.5l4.3-18.5l4.3-18.5l0.2-1l-2.9-7l-12.7-14.1l-12.7-14.1L1077.9,574.4"/>
<path class="st1" d="M961.2,597.5l14.2,12.4"/>
<path class="st1" d="M972.4,668.8l1-19l1-19l1-19l0.1-1.9l18.7-3.7l18.7-3.7l18.7-3.7l17.6-3.5"/>
<path class="st1" d="M1070.5,649.4l-7-17.7l-7-17.7l-7-17.7l-0.4-1l15.4-11.1l13.6-9.8"/>
<path class="st1" d="M962.1,683.1l10.3-14.4l18,6.2l18,6.2l17.7,6.1"/>
<path class="st1" d="M1041.7,720.3l-8.1-17.2l-7.5-15.8l14.5-12.3l14.5-12.3l14.5-12.3l1-0.9l18.4,4.8l8.6,2.2"/>
<path class="st1" d="M1088.6,703.4l3.5-18.7l3.5-18.7l1.8-9.7l5.6-18.2l5.6-18.2l2.6-8.5"/>
<path class="st1" d="M928,195.7l8.4-17.1l8.4-17.1l5.2-10.6l-6.5-17.8l-4.2-11.3l-9.8-16.3l-9.8-16.3L910,72.8l-0.5-0.9l-6.9-3
	l-19-1.3l-19-1.3l-11.9-0.8l-18.8,0.9L823,82.2l-10.8,15.6l-10.8,15.6l-10.2,14.7l-3.3,18.7l-2.9,16.5l10.1,16.1l10.1,16.1l4.6,7.3
	l16.3,9.8l16.3,9.8l2.9,1.7l19-0.4l19-0.4l16.8-0.3l13.6-13.3l13.6-13.3L928,195.7"/>
<path class="st1" d="M939.3,121.7L925.7,135l-13.6,13.3l-1.1,1"/>
<path class="st1" d="M870.6,119.3l15.3,11.3l15.3,11.3l9.9,7.4l-8.4,17.1l-8.4,17.1l-5.2,10.6"/>
<path class="st1" d="M830.7,185.4l18.8,2.8l18.8,2.8l18.8,2.8l2,0.3l6.5,17.9l4.2,11.3"/>
<path class="st1" d="M909.5,72l-19-0.7l-10.7-0.4"/>
<path class="st1" d="M833.8,66.5l18.9,1.8l18.9,1.8l8.1,0.8l-3.5,18.7l-3.5,18.7l-2.1,11l-15.5,10.9l-15.5,10.9L824,152.1l-1.3,0.9"
	/>
<path class="st1" d="M791.1,128.1l14.9,11.8l14.9,11.8l1.8,1.4l4.6,18.5l3.4,13.9L816,197.5l-6.5,5.4"/>
<path class="st1" d="M669.1,256.2l19,1.3l19,1.3l11.9,0.8"/>
<path class="st1" d="M740.1,301.5l-8.6-17l-8.6-17l-4-8l10.8-15.6l10.8-15.6l10.8-15.6l10.2-14.7"/>
<path class="st1" d="M797.2,219.4l-16.3-9.8l-16.3-9.8l-2.9-1.7l-10.1-16.1l-10.1-16.1l-4.6-7.3"/>
<path class="st1" d="M755.8,157.5l-18.8,0.9l-19-1.3l-19-1.3l-11.9-0.8"/>
<path class="st1" d="M680.2,152.1l6.9,3l-10.8,15.6l-10.8,15.6l-10.8,15.6l-10.2,14.7"/>
<path class="st1" d="M623.2,234.2l14.6-12.1l6.5-5.4l10.1,16.1l10.1,16.1l4.6,7.3l-3.3,18.7l-2.9,16.5"/>
<path class="st1" d="M740.1,301.5l16.4-9.7l16.4-9.7l9.9-5.9l4.7-18.4l4.7-18.4l4.7-18.4l0.4-1.6l-2.5-17.5l-12.5-14.3l-12.5-14.3
	l-12.5-14.3l-1.2-1.4l-18.9-1.8l-18.9-1.8l-8.1-0.8l-19-0.7l-10.7-0.4l-11.8,14.9l-11.8,14.9l-11.9,14.9l-9.5,16.5l-9.5,16.5
	l-2.6,4.4l4.6,18.5l3.4,13.9l14.9,11.8L661,290l1.8,1.4l17.3,7.8l17.3,7.8l17.3,7.8l1,0.5l16.5-9.4L740.1,301.5"/>
<path class="st1" d="M1003.9,255l17.8,6.7l16.4,6.2l17.2-8l17.2-8l17-7.9l8.8-16.8l8.9-17l2.6-18.8l2.6-18.8l1.3-9.2l-12.7-14.2
	l-12.3-13.7l-16.5-9.5l-16.5-9.5l-16.5-9.5l-14.1-8.1l-12.4,6.4l-16.4,9.5l-16.4,9.5l-10.9,6.3l-10.8,7.2l-1.8,18.9l-1.8,18.9
	l-1.8,18.9l-0.1,1.3l6.5,17.9l4.2,11.3l15.3,11.3l15.3,11.3L1003.9,255"/>
<path class="st1" d="M1038.1,267.9l-6.5-17.8l-4.2-11.3"/>
<path class="st1" d="M1075.3,205l-15.5,10.9l-15.5,10.9l-15.5,10.9l-1.3,0.9l-15.3-11.3l-15.3-11.3l-9.9-7.4"/>
<path class="st1" d="M1008.9,164l-8.4,17.1l-8.4,17.1l-5.2,10.6l-17.8-6.7l-16.4-6.2"/>
<path class="st1" d="M1107.3,210.1l-18.8-3l-13.2-2.1l-4.6-18.5l-3.4-13.9"/>
<path class="st1" d="M1088.8,135.3l-9.5,16.5l-9.5,16.5l-2.6,4.4l-18.8-2.8l-18.8-2.8l-18.8-2.8l-2-0.3l-10.4-15.9L988,132.2
	l-5.4-8.3"/>
<path class="st1" d="M1025.3,98.7l-16.4,9.7l-16.4,9.7l-9.9,5.9l-16.5,9.4l-7.8,4.4"/>
<path class="st1" d="M320.7,656.8l-16.7-9l-16.7-9l-10.4-5.6l-18.1,5.9l-11.5,3.7l-16.6,9.2l-16.6,9.2l-16.6,9.2l-0.9,0.5l-3.2,6.8
	l-2,18.9l-2,18.9l-1.2,11.9l0.2,18.9l15.2,11.4l15.2,11.4l15.2,11.4l14.3,10.8l18.6,4l16.4,3.6l16.5-9.5l16.5-9.5l7.5-4.3l10.4-15.9
	l10.4-15.9l1.8-2.8l0.3-19l0.3-19l0.2-8.7l0.1-8.1l-0.4-0.4l-1.7-1.9l-12.8-14.1L320.7,656.8"/>
<path class="st1" d="M247.3,642.8l12.8,14.1l12.8,14.1l1,1.1"/>
<path class="st1" d="M242.3,711.4l11.9-14.8l11.9-14.8l7.7-9.6l16.7,9l16.7,9l10.4,5.6"/>
<path class="st1" d="M306.9,753.7l3.5-18.7l3.5-18.7l3.5-18.7l0.4-2l18.1-5.9l8.4-2.7l3.1-1"/>
<path class="st1" d="M196.5,670.8l-1.4,19l-0.8,10.7"/>
<path class="st1" d="M188.2,746.2l2.5-18.8l2.5-18.8l1.1-8l18.5,4.2l18.5,4.2l10.9,2.5l10.4,15.9l10.4,15.9l10.4,15.9l0.8,1.3"/>
<path class="st1" d="M248.2,791.2l12.3-14.5l12.3-14.5l1.5-1.7l18.6-3.9l14-2.9l11.6,15.1l5.2,6.7"/>
<path class="st1" d="M507.6,667.5l-14.6,12.1l-14.2,11.7"/>
<path class="st1" d="M435.4,654.2l14.4,12.4l14.4,12.4l14.5,12.4l-10.1,16.1l-10.1,16.1l-10.1,16.1l-8.6,13.8"/>
<path class="st1" d="M383.6,737l18.2,5.3l18.2,5.3l18.2,5.3l1.6,0.5l5.9,12.6"/>
<path class="st1" d="M347.1,694.1l7.4,17.5l7.4,17.5l4.1,9.8l16.5,9.4l16.7,9.5l18.7,3.3l18.7,3.3l9.2,1.6l14.6-12.1l14.2-11.8
	l10.1-16.1l10.1-16.1l10.1-16.1l8.6-13.8l-5.9-12.6l-8.9-16.8l-8.9-16.8l-5.9-11.1l-6.8-11.1l-18.8-2.5l-18.8-2.5l-18.8-2.5
	l-1.3-0.2l-18.1,5.9l-11.5,3.7l-11.9,14.8l-11.9,14.8l-7.7,9.6l-7.4,17.5l-5.6,13.3"/>
<path class="st1" d="M437.6,624.5l-1.4,19l-0.8,10.7l-16.6,9.2l-16.6,9.2l-16.6,9.2l-0.9,0.5"/>
<path class="st1" d="M358.1,652.9l12.8,14.1l12.8,14.1l1,1.1l-0.3,19l-0.3,19l-0.3,16.8l-17.6,1.9"/>
<path class="st1" d="M483.8,622.8l-19,0.7l-19,0.7l-8.2,0.3l-18.5-4.2l-18.5-4.2l-10.9-2.5"/>
<path class="st1" d="M358.6,149l-18.7,3.7l-18.7,3.7l-18.6,3.7l-17.6,3.5l-5.6,18.2l-5.6,18.2l-2.6,8.5l-3.5,18.7l-3.5,18.7
	l-1.8,9.7l11.6,15.1l11.6,15.1l11.6,15.1l1.2,1.6l19,1.5l8.5,0.7l18.7-3.7l18.6-3.7l18.7-3.7l17.6-3.5l5.6-18.2l5.6-18.2l2.6-8.5
	l3.5-18.7l3.5-18.7l1.8-9.7l-11.6-15.1l-11.6-15.1l-11.6-15.1l-1.2-1.6l-19-1.5L358.6,149"/>
<path class="st1" d="M358.6,149l4.9,18.4l4.9,18.4l0.9,3.3"/>
<path class="st1" d="M319.3,219.9l16.2-10l16.2-10l16.2-10l1.4-0.9l13.9,13l13.9,13l12.3,11.5"/>
<path class="st1" d="M396.2,282.9l4.3-18.5l4.3-18.5l4.3-18.5l0.2-1L417,209l4.9-11"/>
<path class="st1" d="M271.1,208.4l18.5,4.4l18.5,4.4l11.2,2.7l5.3,18.3l5.3,18.3l5.3,18.3l4.5,15.6"/>
<path class="st1" d="M298.1,302.3l18.3-5.3l18.3-5.3l4.9-1.4l18.8-2.5l18.8-2.5l18.9-2.5l2.9,7"/>
<circle class="st1" cx="84.5" cy="209" r="20.5"/>
<circle class="st1" cx="551.5" cy="224" r="20.5"/>
<circle class="st1" cx="193.5" cy="305" r="20.5"/>
<line class="st1" x1="193" y1="284.5" x2="193" y2="114.5"/>
<circle class="st1" cx="477.5" cy="257" r="20.5"/>
<line class="st1" x1="477" y1="236.5" x2="477" y2="33.5"/>
<line class="st1" x1="552" y1="203" x2="552" y2="121.5"/>
<circle class="st1" cx="113.5" cy="649" r="20.5"/>
<path class="st1" d="M113,365.7"/>
<line class="st1" x1="113" y1="437" x2="113" y2="412.3"/>
<line class="st1" x1="113" y1="628.5" x2="113" y2="527.9"/>
<circle class="st1" cx="608.5" cy="571" r="20.5"/>
<path class="st1" d="M608,397"/>
<line class="st1" x1="608" y1="499" x2="608" y2="480.3"/>
<line class="st1" x1="608" y1="550.5" x2="608" y2="532.3"/>
<circle class="st1" cx="805.5" cy="612" r="20.5"/>
<path class="st1" d="M805,89"/>
<line class="st1" x1="805" y1="349.6" x2="805" y2="215.5"/>
<line class="st1" x1="805" y1="402.3" x2="805" y2="392.3"/>
<line class="st1" x1="805" y1="591.5" x2="805" y2="532"/>
<circle class="st1" cx="1177.5" cy="344" r="20.5"/>
<line class="st1" x1="1177" y1="323.5" x2="1177" y2="142.5"/>
<circle class="st1" cx="1158.5" cy="668" r="20.5"/>
<path class="st1" d="M1158,402.3"/>
<line class="st1" x1="1158" y1="647.5" x2="1158" y2="441.6"/>
<circle class="st1" cx="921.5" cy="808" r="20.5"/>
<path class="st1" d="M921,75.5"/>
<line class="st1" x1="921" y1="353" x2="921" y2="217.1"/>
<line class="st1" x1="921" y1="789" x2="921" y2="532.3"/>
<circle class="st1" cx="675.5" cy="707" r="20.5"/>
<path class="st1" d="M675,142.5"/>
<line class="st1" x1="675" y1="435.7" x2="675" y2="315.2"/>
<line class="st1" x1="675" y1="686.5" x2="675" y2="482.3"/>
<circle class="st1" cx="30.5" cy="591" r="20.5"/>
<path class="st1" d="M30,374.3"/>
<line class="st1" x1="30" y1="477.7" x2="30" y2="446.3"/>
<line class="st1" x1="30" y1="570.5" x2="30" y2="523.1"/>
</svg>
